<?xml version="1.0" encoding="UTF-8"?>
<!DOCTYPE svg PUBLIC "-//W3C//DTD SVG 1.1//EN" "http://www.w3.org/Graphics/SVG/1.1/DTD/svg11.dtd">
<svg version="1.1" xmlns="http://www.w3.org/2000/svg" xmlns:xlink="http://www.w3.org/1999/xlink" x="0" y="0" width="100" height="100" viewBox="0, 0, 100, 100">
  <g id="Background">
    <rect x="0" y="0" width="100" height="100" fill="#FFFFFF" fill-opacity="0"/>
  </g>
  <g id="icon">
    <path d="M42.144,-0 L2.766,22.718 L2.766,22.728 L2.766,77.272 L17.561,85.813 L17.561,31.259 L42.144,17.062 L42.144,-0 z" fill="#000000"/>
    <path d="M57.856,-0 L57.856,43.447 L42.144,43.447 L42.144,27.231 L27.349,35.772 L27.349,91.438 L42.144,100 L42.144,56.676 L57.856,56.676 L57.856,72.78 L72.651,64.249 L72.651,8.541 L57.856,-0 z" fill="#000000"/>
    <path d="M57.856,100 L97.234,77.282 L97.234,77.261 L97.234,22.728 L82.439,14.187 L82.439,68.741 L57.856,82.938 L57.856,100 z" fill="#000000"/>
  </g>
</svg>
